<?xml version="1.0" encoding="UTF-8" standalone="no"?>
<!-- Created with Inkscape (http://www.inkscape.org/) -->

<svg
   width="32.008663mm"
   height="31.993731mm"
   viewBox="0 0 32.008663 31.993731"
   version="1.1"
   id="svg5"
   inkscape:version="1.1 (c68e22c387, 2021-05-23)"
   sodipodi:docname="program_icon.svg"
   xmlns:inkscape="http://www.inkscape.org/namespaces/inkscape"
   xmlns:sodipodi="http://sodipodi.sourceforge.net/DTD/sodipodi-0.dtd"
   xmlns="http://www.w3.org/2000/svg"
   xmlns:svg="http://www.w3.org/2000/svg">
  <sodipodi:namedview
     id="namedview7"
     pagecolor="#ffffff"
     bordercolor="#666666"
     borderopacity="1.0"
     inkscape:pageshadow="2"
     inkscape:pageopacity="0.0"
     inkscape:pagecheckerboard="0"
     inkscape:document-units="mm"
     showgrid="false"
     inkscape:zoom="2.04541"
     inkscape:cx="58.912395"
     inkscape:cy="137.13632"
     inkscape:window-width="1858"
     inkscape:window-height="1057"
     inkscape:window-x="54"
     inkscape:window-y="-8"
     inkscape:window-maximized="1"
     inkscape:current-layer="layer1" />
  <defs
     id="defs2" />
  <g
     inkscape:label="Calque 1"
     inkscape:groupmode="layer"
     id="layer1"
     transform="translate(-79.995675,-25.003138)">
    <rect
       style="fill:#008ee8;fill-opacity:1;stroke:#000000;stroke-width:0.135237;stroke-opacity:1"
       id="rect846"
       width="28.692106"
       height="31.858494"
       x="81.705978"
       y="25.070757"
       ry="2.4385285" />
    <ellipse
       style="fill:#ffffff;stroke:#000000;stroke-width:0.195056;stroke-opacity:1"
       id="path1012"
       cx="81.683884"
       cy="35.484287"
       rx="1.5906804"
       ry="1.7418061" />
    <ellipse
       style="fill:#ff0000;fill-opacity:1;stroke:#ffffff;stroke-width:0.195056"
       id="path1012-2"
       cx="81.683884"
       cy="46.515728"
       rx="1.5906804"
       ry="1.7418061" />
    <ellipse
       style="fill:#00ff00;stroke:#ffffff;stroke-width:0.195056"
       id="path1012-2-0"
       cx="110.31613"
       cy="35.484287"
       rx="1.5906804"
       ry="1.7418061" />
    <ellipse
       style="fill:#00ff00;stroke:#ffffff;stroke-width:0.195056"
       id="path1012-2-4"
       cx="110.10403"
       cy="46.515728"
       rx="1.5906804"
       ry="1.7418061" />
    <g
       id="g4710"
       transform="matrix(0.15867937,0,0,0.17375502,86.449005,31.555929)"
       style="fill:#ffffff;stroke:#000000;stroke-width:3.18686426;stroke-miterlimit:4;stroke-dasharray:none;stroke-opacity:1">
      <g
         id="g4302"
         transform="matrix(0.26458333,0,0,0.26458333,-6.6439,-14.109877)"
         style="fill:#ffffff;stroke:#000000;stroke-width:12.04484143;stroke-miterlimit:4;stroke-dasharray:none;stroke-opacity:1">
        <g
           id="g4300"
           style="fill:#ffffff;stroke:#000000;stroke-width:12.04484143;stroke-miterlimit:4;stroke-dasharray:none;stroke-opacity:1">
          <path
             d="m 253.476,358.88 c -24.24,0 -43.96,19.656 -43.96,43.804 0,24.156 19.72,43.82 43.96,43.82 24.248,0 43.968,-19.664 43.968,-43.82 0,-24.148 -19.724,-43.804 -43.968,-43.804 z"
             id="path4298"
             style="fill:#ffffff;stroke:#000000;stroke-width:12.04484143;stroke-miterlimit:4;stroke-dasharray:none;stroke-opacity:1" />
        </g>
      </g>
      <g
         id="g4308"
         transform="matrix(0.26458333,0,0,0.26458333,-6.6439,-14.109877)"
         style="fill:#ffffff;stroke:#000000;stroke-width:12.04484143;stroke-miterlimit:4;stroke-dasharray:none;stroke-opacity:1">
        <g
           id="g4306"
           style="fill:#ffffff;stroke:#000000;stroke-width:12.04484143;stroke-miterlimit:4;stroke-dasharray:none;stroke-opacity:1">
          <path
             d="m 360.732,299.197 c -28.62,-28.604 -66.716,-44.364 -107.256,-44.364 -40.384,0 -78.376,15.656 -106.988,44.08 -11.556,11.5 -11.576,30.236 -0.048,41.756 5.6,5.608 13.056,8.688 20.992,8.688 7.9,0 15.328,-3.064 20.92,-8.624 17.412,-17.304 40.54,-26.836 65.124,-26.836 24.676,0 47.868,9.592 65.292,27 5.6,5.592 13.052,8.68 20.98,8.68 7.908,0 15.332,-3.064 20.928,-8.624 11.572,-11.501 11.592,-30.228 0.056,-41.756 z"
             id="path4304"
             style="fill:#ffffff;stroke:#000000;stroke-width:12.04484143;stroke-miterlimit:4;stroke-dasharray:none;stroke-opacity:1" />
        </g>
      </g>
      <g
         id="g4314"
         transform="matrix(0.26458333,0,0,0.26458333,-6.6439,-14.109877)"
         style="fill:#ffffff;stroke:#000000;stroke-width:12.04484143;stroke-miterlimit:4;stroke-dasharray:none;stroke-opacity:1">
        <g
           id="g4312"
           style="fill:#ffffff;stroke:#000000;stroke-width:12.04484143;stroke-miterlimit:4;stroke-dasharray:none;stroke-opacity:1">
          <path
             d="M 498.512,161.872 C 433.08,96.601 346.052,60.665 253.476,60.665 c -92.452,0 -179.392,35.852 -244.804,100.968 -11.556,11.5 -11.564,30.236 -0.016,41.756 5.596,5.58 13.04,8.648 20.96,8.648 7.916,0 15.352,-3.056 20.948,-8.632 54.22,-53.968 126.28,-83.696 202.912,-83.696 76.744,0 148.876,29.788 203.108,83.9 5.596,5.584 13.052,8.664 20.968,8.664 7.912,0 15.348,-3.072 20.94,-8.64 11.56,-11.509 11.572,-30.252 0.02,-41.761 z"
             id="path4310"
             style="fill:#ffffff;stroke:#000000;stroke-width:12.04484143;stroke-miterlimit:4;stroke-dasharray:none;stroke-opacity:1" />
        </g>
      </g>
      <g
         id="g4320"
         transform="matrix(0.26458333,0,0,0.26458333,-6.6439,-14.109877)"
         style="fill:#ffffff;stroke:#000000;stroke-width:12.04484143;stroke-miterlimit:4;stroke-dasharray:none;stroke-opacity:1">
        <g
           id="g4318"
           style="fill:#ffffff;stroke:#000000;stroke-width:12.04484143;stroke-miterlimit:4;stroke-dasharray:none;stroke-opacity:1">
          <path
             d="M 427.876,232.256 C 381.3,185.788 319.364,160.2 253.476,160.2 c -65.768,0 -127.612,25.508 -174.148,71.812 -5.604,5.572 -8.688,12.984 -8.7,20.876 0,7.884 3.072,15.304 8.668,20.884 5.596,5.584 13.044,8.664 20.964,8.664 7.908,0 15.344,-3.072 20.948,-8.632 35.352,-35.172 82.328,-54.548 132.268,-54.548 50.044,0 97.084,19.444 132.46,54.736 5.604,5.592 13.048,8.672 20.972,8.672 7.912,0 15.352,-3.072 20.94,-8.64 5.596,-5.572 8.688,-12.984 8.692,-20.876 0.008,-7.892 -3.072,-15.304 -8.664,-20.892 z"
             id="path4316"
             style="fill:#ffffff;stroke:#000000;stroke-width:12.04484143;stroke-miterlimit:4;stroke-dasharray:none;stroke-opacity:1" />
        </g>
      </g>
      <g
         id="g4322"
         transform="matrix(0.26458333,0,0,0.26458333,-6.6439,-14.109877)"
         style="fill:#ffffff;stroke:#000000;stroke-width:12.04484143;stroke-miterlimit:4;stroke-dasharray:none;stroke-opacity:1" />
      <g
         id="g4324"
         transform="matrix(0.26458333,0,0,0.26458333,-6.6439,-14.109877)"
         style="fill:#ffffff;stroke:#000000;stroke-width:12.04484143;stroke-miterlimit:4;stroke-dasharray:none;stroke-opacity:1" />
      <g
         id="g4326"
         transform="matrix(0.26458333,0,0,0.26458333,-6.6439,-14.109877)"
         style="fill:#ffffff;stroke:#000000;stroke-width:12.04484143;stroke-miterlimit:4;stroke-dasharray:none;stroke-opacity:1" />
      <g
         id="g4328"
         transform="matrix(0.26458333,0,0,0.26458333,-6.6439,-14.109877)"
         style="fill:#ffffff;stroke:#000000;stroke-width:12.04484143;stroke-miterlimit:4;stroke-dasharray:none;stroke-opacity:1" />
      <g
         id="g4330"
         transform="matrix(0.26458333,0,0,0.26458333,-6.6439,-14.109877)"
         style="fill:#ffffff;stroke:#000000;stroke-width:12.04484143;stroke-miterlimit:4;stroke-dasharray:none;stroke-opacity:1" />
      <g
         id="g4332"
         transform="matrix(0.26458333,0,0,0.26458333,-6.6439,-14.109877)"
         style="fill:#ffffff;stroke:#000000;stroke-width:12.04484143;stroke-miterlimit:4;stroke-dasharray:none;stroke-opacity:1" />
      <g
         id="g4334"
         transform="matrix(0.26458333,0,0,0.26458333,-6.6439,-14.109877)"
         style="fill:#ffffff;stroke:#000000;stroke-width:12.04484143;stroke-miterlimit:4;stroke-dasharray:none;stroke-opacity:1" />
      <g
         id="g4336"
         transform="matrix(0.26458333,0,0,0.26458333,-6.6439,-14.109877)"
         style="fill:#ffffff;stroke:#000000;stroke-width:12.04484143;stroke-miterlimit:4;stroke-dasharray:none;stroke-opacity:1" />
      <g
         id="g4338"
         transform="matrix(0.26458333,0,0,0.26458333,-6.6439,-14.109877)"
         style="fill:#ffffff;stroke:#000000;stroke-width:12.04484143;stroke-miterlimit:4;stroke-dasharray:none;stroke-opacity:1" />
      <g
         id="g4340"
         transform="matrix(0.26458333,0,0,0.26458333,-6.6439,-14.109877)"
         style="fill:#ffffff;stroke:#000000;stroke-width:12.04484143;stroke-miterlimit:4;stroke-dasharray:none;stroke-opacity:1" />
      <g
         id="g4342"
         transform="matrix(0.26458333,0,0,0.26458333,-6.6439,-14.109877)"
         style="fill:#ffffff;stroke:#000000;stroke-width:12.04484143;stroke-miterlimit:4;stroke-dasharray:none;stroke-opacity:1" />
      <g
         id="g4344"
         transform="matrix(0.26458333,0,0,0.26458333,-6.6439,-14.109877)"
         style="fill:#ffffff;stroke:#000000;stroke-width:12.04484143;stroke-miterlimit:4;stroke-dasharray:none;stroke-opacity:1" />
      <g
         id="g4346"
         transform="matrix(0.26458333,0,0,0.26458333,-6.6439,-14.109877)"
         style="fill:#ffffff;stroke:#000000;stroke-width:12.04484143;stroke-miterlimit:4;stroke-dasharray:none;stroke-opacity:1" />
      <g
         id="g4348"
         transform="matrix(0.26458333,0,0,0.26458333,-6.6439,-14.109877)"
         style="fill:#ffffff;stroke:#000000;stroke-width:12.04484143;stroke-miterlimit:4;stroke-dasharray:none;stroke-opacity:1" />
      <g
         id="g4350"
         transform="matrix(0.26458333,0,0,0.26458333,-6.6439,-14.109877)"
         style="fill:#ffffff;stroke:#000000;stroke-width:12.04484143;stroke-miterlimit:4;stroke-dasharray:none;stroke-opacity:1" />
    </g>
  </g>
</svg>
